<mxfile host="app.diagrams.net" modified="2024-03-05T06:54:29.960Z" agent="Mozilla/5.0 (Windows NT 10.0; Win64; x64) AppleWebKit/537.36 (KHTML, like Gecko) Chrome/120.0.0.0 YaBrowser/24.1.0.0 Safari/537.36" etag="7YP_1MeMdVZPcLujX9er" version="24.0.1" type="google">
  <diagram name="Страница — 1" id="EGUToMXHcMjag6Prcojg">
    <mxGraphModel grid="1" page="1" gridSize="10" guides="1" tooltips="1" connect="1" arrows="1" fold="1" pageScale="1" pageWidth="827" pageHeight="1169" math="0" shadow="0">
      <root>
        <mxCell id="0" />
        <mxCell id="1" parent="0" />
        <mxCell id="Ak_vRCHNeL2dAgaO65nm-165" value="&lt;p style=&quot;margin:0px;margin-top:4px;text-align:center;text-decoration:underline;&quot;&gt;&lt;b&gt;Врач&lt;/b&gt;&lt;/p&gt;" style="verticalAlign=top;align=left;overflow=fill;fontSize=12;fontFamily=Helvetica;html=1;whiteSpace=wrap;" vertex="1" parent="1">
          <mxGeometry x="960" y="1730" width="240" height="650" as="geometry" />
        </mxCell>
        <mxCell id="Ak_vRCHNeL2dAgaO65nm-164" value="" style="rounded=1;whiteSpace=wrap;html=1;fillColor=none;arcSize=6;" vertex="1" parent="1">
          <mxGeometry x="820" y="1680" width="1140" height="750" as="geometry" />
        </mxCell>
        <mxCell id="Ak_vRCHNeL2dAgaO65nm-81" value="" style="rounded=1;whiteSpace=wrap;html=1;fillColor=none;arcSize=6;" vertex="1" parent="1">
          <mxGeometry x="746" y="-10" width="1064" height="750" as="geometry" />
        </mxCell>
        <mxCell id="Ak_vRCHNeL2dAgaO65nm-79" value="" style="rounded=1;whiteSpace=wrap;html=1;fillColor=none;arcSize=6;" vertex="1" parent="1">
          <mxGeometry x="-410" width="1140" height="750" as="geometry" />
        </mxCell>
        <mxCell id="Ak_vRCHNeL2dAgaO65nm-1" value="&lt;p style=&quot;margin:0px;margin-top:4px;text-align:center;text-decoration:underline;&quot;&gt;&lt;b&gt;Пользователь&lt;/b&gt;&lt;/p&gt;" style="verticalAlign=top;align=left;overflow=fill;fontSize=12;fontFamily=Helvetica;html=1;whiteSpace=wrap;" vertex="1" parent="1">
          <mxGeometry x="-260" y="30" width="240" height="650" as="geometry" />
        </mxCell>
        <mxCell id="Ak_vRCHNeL2dAgaO65nm-2" value="&lt;p style=&quot;margin:0px;margin-top:4px;text-align:center;text-decoration:underline;&quot;&gt;&lt;b&gt;Страницы входа&lt;/b&gt;&lt;/p&gt;" style="verticalAlign=top;align=left;overflow=fill;fontSize=12;fontFamily=Helvetica;html=1;whiteSpace=wrap;" vertex="1" parent="1">
          <mxGeometry x="-20" y="30" width="420" height="650" as="geometry" />
        </mxCell>
        <mxCell id="Ak_vRCHNeL2dAgaO65nm-3" style="edgeStyle=orthogonalEdgeStyle;rounded=0;orthogonalLoop=1;jettySize=auto;html=1;entryX=0.5;entryY=0;entryDx=0;entryDy=0;" edge="1" parent="1" source="Ak_vRCHNeL2dAgaO65nm-4" target="Ak_vRCHNeL2dAgaO65nm-11">
          <mxGeometry relative="1" as="geometry">
            <Array as="points">
              <mxPoint x="-155" y="190" />
              <mxPoint x="155" y="190" />
            </Array>
          </mxGeometry>
        </mxCell>
        <mxCell id="Ak_vRCHNeL2dAgaO65nm-4" value="Заполнение формы входа" style="rounded=1;whiteSpace=wrap;html=1;" vertex="1" parent="1">
          <mxGeometry x="-210" y="120" width="110" height="50" as="geometry" />
        </mxCell>
        <mxCell id="Ak_vRCHNeL2dAgaO65nm-5" style="edgeStyle=orthogonalEdgeStyle;rounded=0;orthogonalLoop=1;jettySize=auto;html=1;entryX=0.5;entryY=0;entryDx=0;entryDy=0;" edge="1" parent="1" source="Ak_vRCHNeL2dAgaO65nm-6" target="Ak_vRCHNeL2dAgaO65nm-8">
          <mxGeometry relative="1" as="geometry" />
        </mxCell>
        <mxCell id="Ak_vRCHNeL2dAgaO65nm-6" value="" style="ellipse;whiteSpace=wrap;html=1;aspect=fixed;" vertex="1" parent="1">
          <mxGeometry x="145" y="60" width="20" height="20" as="geometry" />
        </mxCell>
        <mxCell id="Ak_vRCHNeL2dAgaO65nm-7" style="edgeStyle=orthogonalEdgeStyle;rounded=0;orthogonalLoop=1;jettySize=auto;html=1;entryX=1;entryY=0.5;entryDx=0;entryDy=0;" edge="1" parent="1" source="Ak_vRCHNeL2dAgaO65nm-8" target="Ak_vRCHNeL2dAgaO65nm-4">
          <mxGeometry relative="1" as="geometry" />
        </mxCell>
        <mxCell id="Ak_vRCHNeL2dAgaO65nm-8" value="Форма входа" style="rounded=1;whiteSpace=wrap;html=1;" vertex="1" parent="1">
          <mxGeometry x="100" y="120" width="110" height="50" as="geometry" />
        </mxCell>
        <mxCell id="Ak_vRCHNeL2dAgaO65nm-9" style="edgeStyle=orthogonalEdgeStyle;rounded=0;orthogonalLoop=1;jettySize=auto;html=1;entryX=0.5;entryY=0;entryDx=0;entryDy=0;" edge="1" parent="1" source="Ak_vRCHNeL2dAgaO65nm-11" target="Ak_vRCHNeL2dAgaO65nm-14">
          <mxGeometry relative="1" as="geometry" />
        </mxCell>
        <mxCell id="Ak_vRCHNeL2dAgaO65nm-10" style="edgeStyle=orthogonalEdgeStyle;rounded=0;orthogonalLoop=1;jettySize=auto;html=1;" edge="1" parent="1" source="Ak_vRCHNeL2dAgaO65nm-11" target="Ak_vRCHNeL2dAgaO65nm-16">
          <mxGeometry relative="1" as="geometry">
            <Array as="points">
              <mxPoint x="253" y="245" />
            </Array>
          </mxGeometry>
        </mxCell>
        <mxCell id="Ak_vRCHNeL2dAgaO65nm-11" value="Информация валидная?" style="rhombus;whiteSpace=wrap;html=1;" vertex="1" parent="1">
          <mxGeometry x="112.5" y="210" width="85" height="70" as="geometry" />
        </mxCell>
        <mxCell id="Ak_vRCHNeL2dAgaO65nm-12" value="&lt;p style=&quot;margin:0px;margin-top:4px;text-align:center;text-decoration:underline;&quot;&gt;&lt;b&gt;Админ&lt;/b&gt;&lt;/p&gt;" style="verticalAlign=top;align=left;overflow=fill;fontSize=12;fontFamily=Helvetica;html=1;whiteSpace=wrap;" vertex="1" parent="1">
          <mxGeometry x="400" y="30" width="280" height="650" as="geometry" />
        </mxCell>
        <mxCell id="Ak_vRCHNeL2dAgaO65nm-13" style="edgeStyle=orthogonalEdgeStyle;rounded=0;orthogonalLoop=1;jettySize=auto;html=1;entryX=1;entryY=0.5;entryDx=0;entryDy=0;" edge="1" parent="1" source="Ak_vRCHNeL2dAgaO65nm-14" target="Ak_vRCHNeL2dAgaO65nm-20">
          <mxGeometry relative="1" as="geometry" />
        </mxCell>
        <mxCell id="Ak_vRCHNeL2dAgaO65nm-14" value="Уведомление: успешный вход" style="rounded=1;whiteSpace=wrap;html=1;" vertex="1" parent="1">
          <mxGeometry x="-10" y="310" width="110" height="50" as="geometry" />
        </mxCell>
        <mxCell id="Ak_vRCHNeL2dAgaO65nm-15" style="edgeStyle=orthogonalEdgeStyle;rounded=0;orthogonalLoop=1;jettySize=auto;html=1;" edge="1" parent="1" source="Ak_vRCHNeL2dAgaO65nm-16" target="Ak_vRCHNeL2dAgaO65nm-23">
          <mxGeometry relative="1" as="geometry" />
        </mxCell>
        <mxCell id="Ak_vRCHNeL2dAgaO65nm-16" value="Уведомление: входные данные некорректные" style="rounded=1;whiteSpace=wrap;html=1;" vertex="1" parent="1">
          <mxGeometry x="197.5" y="310" width="110" height="50" as="geometry" />
        </mxCell>
        <mxCell id="Ak_vRCHNeL2dAgaO65nm-17" value="Да" style="text;html=1;strokeColor=none;fillColor=none;align=center;verticalAlign=middle;whiteSpace=wrap;rounded=0;" vertex="1" parent="1">
          <mxGeometry x="52.5" y="220" width="60" height="30" as="geometry" />
        </mxCell>
        <mxCell id="Ak_vRCHNeL2dAgaO65nm-18" value="Нет" style="text;html=1;strokeColor=none;fillColor=none;align=center;verticalAlign=middle;whiteSpace=wrap;rounded=0;" vertex="1" parent="1">
          <mxGeometry x="193" y="220" width="60" height="30" as="geometry" />
        </mxCell>
        <mxCell id="Ak_vRCHNeL2dAgaO65nm-19" style="edgeStyle=orthogonalEdgeStyle;rounded=0;orthogonalLoop=1;jettySize=auto;html=1;entryX=0;entryY=0.5;entryDx=0;entryDy=0;" edge="1" parent="1" source="Ak_vRCHNeL2dAgaO65nm-20" target="Ak_vRCHNeL2dAgaO65nm-21">
          <mxGeometry relative="1" as="geometry">
            <Array as="points">
              <mxPoint x="-240" y="335" />
              <mxPoint x="-240" y="660" />
            </Array>
          </mxGeometry>
        </mxCell>
        <mxCell id="Ak_vRCHNeL2dAgaO65nm-20" value="Вход в систему" style="rounded=1;whiteSpace=wrap;html=1;" vertex="1" parent="1">
          <mxGeometry x="-190" y="310" width="110" height="50" as="geometry" />
        </mxCell>
        <mxCell id="Ak_vRCHNeL2dAgaO65nm-21" value="" style="ellipse;whiteSpace=wrap;html=1;aspect=fixed;" vertex="1" parent="1">
          <mxGeometry x="145" y="650" width="20" height="20" as="geometry" />
        </mxCell>
        <mxCell id="Ak_vRCHNeL2dAgaO65nm-22" style="edgeStyle=orthogonalEdgeStyle;rounded=0;orthogonalLoop=1;jettySize=auto;html=1;entryX=1;entryY=0.5;entryDx=0;entryDy=0;" edge="1" parent="1" source="Ak_vRCHNeL2dAgaO65nm-23" target="Ak_vRCHNeL2dAgaO65nm-8">
          <mxGeometry relative="1" as="geometry">
            <Array as="points">
              <mxPoint x="320" y="425" />
              <mxPoint x="320" y="145" />
            </Array>
          </mxGeometry>
        </mxCell>
        <mxCell id="Ak_vRCHNeL2dAgaO65nm-23" value="Попытаться снова или создать аккаунт?" style="rhombus;whiteSpace=wrap;html=1;" vertex="1" parent="1">
          <mxGeometry x="205" y="380" width="95" height="90" as="geometry" />
        </mxCell>
        <mxCell id="Ak_vRCHNeL2dAgaO65nm-24" value="Попытаться снова" style="text;html=1;strokeColor=none;fillColor=none;align=center;verticalAlign=middle;whiteSpace=wrap;rounded=0;" vertex="1" parent="1">
          <mxGeometry x="270" y="380" width="50" height="30" as="geometry" />
        </mxCell>
        <mxCell id="Ak_vRCHNeL2dAgaO65nm-25" style="edgeStyle=orthogonalEdgeStyle;rounded=0;orthogonalLoop=1;jettySize=auto;html=1;" edge="1" parent="1" source="Ak_vRCHNeL2dAgaO65nm-27" target="Ak_vRCHNeL2dAgaO65nm-30">
          <mxGeometry relative="1" as="geometry" />
        </mxCell>
        <mxCell id="Ak_vRCHNeL2dAgaO65nm-26" style="edgeStyle=orthogonalEdgeStyle;rounded=0;orthogonalLoop=1;jettySize=auto;html=1;entryX=0;entryY=0.5;entryDx=0;entryDy=0;" edge="1" parent="1" source="Ak_vRCHNeL2dAgaO65nm-27" target="Ak_vRCHNeL2dAgaO65nm-38">
          <mxGeometry relative="1" as="geometry" />
        </mxCell>
        <mxCell id="Ak_vRCHNeL2dAgaO65nm-27" value="Пациент или врач?" style="rhombus;whiteSpace=wrap;html=1;" vertex="1" parent="1">
          <mxGeometry x="120" y="460" width="111" height="90" as="geometry" />
        </mxCell>
        <mxCell id="Ak_vRCHNeL2dAgaO65nm-28" style="edgeStyle=orthogonalEdgeStyle;rounded=0;orthogonalLoop=1;jettySize=auto;html=1;entryX=0.501;entryY=0.024;entryDx=0;entryDy=0;entryPerimeter=0;" edge="1" parent="1" source="Ak_vRCHNeL2dAgaO65nm-23" target="Ak_vRCHNeL2dAgaO65nm-27">
          <mxGeometry relative="1" as="geometry">
            <Array as="points">
              <mxPoint x="176" y="425" />
            </Array>
          </mxGeometry>
        </mxCell>
        <mxCell id="Ak_vRCHNeL2dAgaO65nm-29" style="edgeStyle=orthogonalEdgeStyle;rounded=0;orthogonalLoop=1;jettySize=auto;html=1;" edge="1" parent="1" source="Ak_vRCHNeL2dAgaO65nm-30" target="Ak_vRCHNeL2dAgaO65nm-34">
          <mxGeometry relative="1" as="geometry" />
        </mxCell>
        <mxCell id="Ak_vRCHNeL2dAgaO65nm-30" value="Показать форму регистрации" style="rounded=1;whiteSpace=wrap;html=1;" vertex="1" parent="1">
          <mxGeometry x="-20" y="480" width="110" height="50" as="geometry" />
        </mxCell>
        <mxCell id="Ak_vRCHNeL2dAgaO65nm-31" value="Создать аккаунт" style="text;html=1;strokeColor=none;fillColor=none;align=center;verticalAlign=middle;whiteSpace=wrap;rounded=0;" vertex="1" parent="1">
          <mxGeometry x="150" y="390" width="65" height="30" as="geometry" />
        </mxCell>
        <mxCell id="Ak_vRCHNeL2dAgaO65nm-32" value="Пациент" style="text;html=1;strokeColor=none;fillColor=none;align=center;verticalAlign=middle;whiteSpace=wrap;rounded=0;" vertex="1" parent="1">
          <mxGeometry x="80" y="460" width="65" height="30" as="geometry" />
        </mxCell>
        <mxCell id="Ak_vRCHNeL2dAgaO65nm-33" style="edgeStyle=orthogonalEdgeStyle;rounded=0;orthogonalLoop=1;jettySize=auto;html=1;entryX=0;entryY=0.5;entryDx=0;entryDy=0;" edge="1" parent="1" source="Ak_vRCHNeL2dAgaO65nm-34" target="Ak_vRCHNeL2dAgaO65nm-36">
          <mxGeometry relative="1" as="geometry">
            <Array as="points">
              <mxPoint x="-190" y="505" />
              <mxPoint x="-190" y="595" />
            </Array>
          </mxGeometry>
        </mxCell>
        <mxCell id="Ak_vRCHNeL2dAgaO65nm-34" value="Заполнение формы регистрации" style="rounded=1;whiteSpace=wrap;html=1;" vertex="1" parent="1">
          <mxGeometry x="-170" y="480" width="110" height="50" as="geometry" />
        </mxCell>
        <mxCell id="Ak_vRCHNeL2dAgaO65nm-35" style="edgeStyle=orthogonalEdgeStyle;rounded=0;orthogonalLoop=1;jettySize=auto;html=1;entryX=1;entryY=0.5;entryDx=0;entryDy=0;" edge="1" parent="1" source="Ak_vRCHNeL2dAgaO65nm-36" target="Ak_vRCHNeL2dAgaO65nm-8">
          <mxGeometry relative="1" as="geometry">
            <Array as="points">
              <mxPoint x="370" y="595" />
              <mxPoint x="370" y="145" />
            </Array>
          </mxGeometry>
        </mxCell>
        <mxCell id="Ak_vRCHNeL2dAgaO65nm-36" value="Сохранение информации" style="rounded=1;whiteSpace=wrap;html=1;" vertex="1" parent="1">
          <mxGeometry x="114" y="570" width="110" height="50" as="geometry" />
        </mxCell>
        <mxCell id="Ak_vRCHNeL2dAgaO65nm-37" style="edgeStyle=orthogonalEdgeStyle;rounded=0;orthogonalLoop=1;jettySize=auto;html=1;entryX=0;entryY=0.5;entryDx=0;entryDy=0;" edge="1" parent="1" source="Ak_vRCHNeL2dAgaO65nm-38" target="Ak_vRCHNeL2dAgaO65nm-36">
          <mxGeometry relative="1" as="geometry">
            <Array as="points">
              <mxPoint x="590" y="505" />
              <mxPoint x="590" y="640" />
              <mxPoint x="94" y="640" />
              <mxPoint x="94" y="595" />
            </Array>
          </mxGeometry>
        </mxCell>
        <mxCell id="Ak_vRCHNeL2dAgaO65nm-38" value="Создание нового аккаунта" style="rounded=1;whiteSpace=wrap;html=1;" vertex="1" parent="1">
          <mxGeometry x="430" y="480" width="110" height="50" as="geometry" />
        </mxCell>
        <mxCell id="Ak_vRCHNeL2dAgaO65nm-39" value="Врач" style="text;html=1;strokeColor=none;fillColor=none;align=center;verticalAlign=middle;whiteSpace=wrap;rounded=0;" vertex="1" parent="1">
          <mxGeometry x="242.5" y="470" width="65" height="30" as="geometry" />
        </mxCell>
        <mxCell id="Ak_vRCHNeL2dAgaO65nm-40" value="&lt;p style=&quot;margin:0px;margin-top:4px;text-align:center;text-decoration:underline;&quot;&gt;&lt;b&gt;Пациент&lt;/b&gt;&lt;/p&gt;" style="verticalAlign=top;align=left;overflow=fill;fontSize=12;fontFamily=Helvetica;html=1;whiteSpace=wrap;" vertex="1" parent="1">
          <mxGeometry x="840" y="30" width="240" height="650" as="geometry" />
        </mxCell>
        <mxCell id="Ak_vRCHNeL2dAgaO65nm-41" value="&lt;p style=&quot;margin:0px;margin-top:4px;text-align:center;text-decoration:underline;&quot;&gt;&lt;b&gt;Система&lt;/b&gt;&lt;br&gt;&lt;/p&gt;" style="verticalAlign=top;align=left;overflow=fill;fontSize=12;fontFamily=Helvetica;html=1;whiteSpace=wrap;" vertex="1" parent="1">
          <mxGeometry x="1080" y="30" width="420" height="650" as="geometry" />
        </mxCell>
        <mxCell id="Ak_vRCHNeL2dAgaO65nm-96" style="edgeStyle=orthogonalEdgeStyle;rounded=0;orthogonalLoop=1;jettySize=auto;html=1;" edge="1" parent="1" source="Ak_vRCHNeL2dAgaO65nm-43" target="Ak_vRCHNeL2dAgaO65nm-88">
          <mxGeometry relative="1" as="geometry" />
        </mxCell>
        <mxCell id="Ak_vRCHNeL2dAgaO65nm-43" value="Текст сообщения" style="rounded=1;whiteSpace=wrap;html=1;" vertex="1" parent="1">
          <mxGeometry x="902" y="120" width="110" height="50" as="geometry" />
        </mxCell>
        <mxCell id="Ak_vRCHNeL2dAgaO65nm-45" value="" style="ellipse;whiteSpace=wrap;html=1;aspect=fixed;" vertex="1" parent="1">
          <mxGeometry x="950" y="60" width="20" height="20" as="geometry" />
        </mxCell>
        <mxCell id="Ak_vRCHNeL2dAgaO65nm-104" style="edgeStyle=orthogonalEdgeStyle;rounded=0;orthogonalLoop=1;jettySize=auto;html=1;" edge="1" parent="1" source="Ak_vRCHNeL2dAgaO65nm-50" target="Ak_vRCHNeL2dAgaO65nm-101">
          <mxGeometry relative="1" as="geometry">
            <Array as="points">
              <mxPoint x="1180" y="335" />
              <mxPoint x="1180" y="390" />
              <mxPoint x="1288" y="390" />
            </Array>
          </mxGeometry>
        </mxCell>
        <mxCell id="Ak_vRCHNeL2dAgaO65nm-108" style="edgeStyle=orthogonalEdgeStyle;rounded=0;orthogonalLoop=1;jettySize=auto;html=1;" edge="1" parent="1" source="Ak_vRCHNeL2dAgaO65nm-50" target="Ak_vRCHNeL2dAgaO65nm-88">
          <mxGeometry relative="1" as="geometry">
            <Array as="points">
              <mxPoint x="1370" y="335" />
              <mxPoint x="1370" y="280" />
              <mxPoint x="957" y="280" />
            </Array>
          </mxGeometry>
        </mxCell>
        <mxCell id="Ak_vRCHNeL2dAgaO65nm-50" value="Пользователь определен?" style="rhombus;whiteSpace=wrap;html=1;" vertex="1" parent="1">
          <mxGeometry x="1237.5" y="300" width="105" height="70" as="geometry" />
        </mxCell>
        <mxCell id="Ak_vRCHNeL2dAgaO65nm-60" value="" style="ellipse;whiteSpace=wrap;html=1;aspect=fixed;" vertex="1" parent="1">
          <mxGeometry x="1277.5" y="600" width="20" height="20" as="geometry" />
        </mxCell>
        <mxCell id="Ak_vRCHNeL2dAgaO65nm-80" value="Диаграмма 1&lt;br&gt;Авторизация" style="text;html=1;align=center;verticalAlign=middle;whiteSpace=wrap;rounded=0;" vertex="1" parent="1">
          <mxGeometry x="-380" y="30" width="100" height="30" as="geometry" />
        </mxCell>
        <mxCell id="Ak_vRCHNeL2dAgaO65nm-82" value="Диаграмма 2&lt;br&gt;Мессенджер" style="text;html=1;align=center;verticalAlign=middle;whiteSpace=wrap;rounded=0;" vertex="1" parent="1">
          <mxGeometry x="746" y="10" width="100" height="30" as="geometry" />
        </mxCell>
        <mxCell id="0l4ULhUtCflf1OsS8YDE-42" value="" style="rounded=1;whiteSpace=wrap;html=1;fillColor=none;arcSize=6;" vertex="1" parent="1">
          <mxGeometry x="-620" y="1040" width="960" height="750" as="geometry" />
        </mxCell>
        <mxCell id="0l4ULhUtCflf1OsS8YDE-43" value="&lt;p style=&quot;margin:0px;margin-top:4px;text-align:center;text-decoration:underline;&quot;&gt;&lt;b&gt;Пользователь&lt;/b&gt;&lt;/p&gt;" style="verticalAlign=top;align=left;overflow=fill;fontSize=12;fontFamily=Helvetica;html=1;whiteSpace=wrap;" vertex="1" parent="1">
          <mxGeometry x="-470" y="1070" width="240" height="650" as="geometry" />
        </mxCell>
        <mxCell id="0l4ULhUtCflf1OsS8YDE-44" value="&lt;p style=&quot;margin:0px;margin-top:4px;text-align:center;text-decoration:underline;&quot;&gt;&lt;b&gt;Система&lt;/b&gt;&lt;/p&gt;" style="verticalAlign=top;align=left;overflow=fill;fontSize=12;fontFamily=Helvetica;html=1;whiteSpace=wrap;" vertex="1" parent="1">
          <mxGeometry x="-230" y="1070" width="420" height="650" as="geometry" />
        </mxCell>
        <mxCell id="0l4ULhUtCflf1OsS8YDE-45" style="edgeStyle=orthogonalEdgeStyle;rounded=0;orthogonalLoop=1;jettySize=auto;html=1;entryX=0.5;entryY=0;entryDx=0;entryDy=0;exitX=1;exitY=0.5;exitDx=0;exitDy=0;" edge="1" parent="1" source="0l4ULhUtCflf1OsS8YDE-83" target="0l4ULhUtCflf1OsS8YDE-53">
          <mxGeometry relative="1" as="geometry">
            <Array as="points">
              <mxPoint x="-260" y="1255" />
              <mxPoint x="-260" y="1220" />
              <mxPoint x="-55" y="1220" />
            </Array>
          </mxGeometry>
        </mxCell>
        <mxCell id="0l4ULhUtCflf1OsS8YDE-46" value="Выбор врача" style="rounded=1;whiteSpace=wrap;html=1;" vertex="1" parent="1">
          <mxGeometry x="-400" y="1150" width="110" height="50" as="geometry" />
        </mxCell>
        <mxCell id="0l4ULhUtCflf1OsS8YDE-47" style="edgeStyle=orthogonalEdgeStyle;rounded=0;orthogonalLoop=1;jettySize=auto;html=1;entryX=0.5;entryY=0;entryDx=0;entryDy=0;" edge="1" parent="1" source="0l4ULhUtCflf1OsS8YDE-48" target="0l4ULhUtCflf1OsS8YDE-50">
          <mxGeometry relative="1" as="geometry" />
        </mxCell>
        <mxCell id="0l4ULhUtCflf1OsS8YDE-48" value="" style="ellipse;whiteSpace=wrap;html=1;aspect=fixed;" vertex="1" parent="1">
          <mxGeometry x="-65" y="1100" width="20" height="20" as="geometry" />
        </mxCell>
        <mxCell id="0l4ULhUtCflf1OsS8YDE-49" style="edgeStyle=orthogonalEdgeStyle;rounded=0;orthogonalLoop=1;jettySize=auto;html=1;entryX=1;entryY=0.5;entryDx=0;entryDy=0;" edge="1" parent="1" source="0l4ULhUtCflf1OsS8YDE-50" target="0l4ULhUtCflf1OsS8YDE-46">
          <mxGeometry relative="1" as="geometry" />
        </mxCell>
        <mxCell id="0l4ULhUtCflf1OsS8YDE-50" value="Форма записи к врачу" style="rounded=1;whiteSpace=wrap;html=1;" vertex="1" parent="1">
          <mxGeometry x="-110" y="1150" width="110" height="50" as="geometry" />
        </mxCell>
        <mxCell id="0l4ULhUtCflf1OsS8YDE-51" style="edgeStyle=orthogonalEdgeStyle;rounded=0;orthogonalLoop=1;jettySize=auto;html=1;entryX=0.5;entryY=0;entryDx=0;entryDy=0;exitX=0;exitY=0.5;exitDx=0;exitDy=0;" edge="1" parent="1" source="0l4ULhUtCflf1OsS8YDE-53" target="0l4ULhUtCflf1OsS8YDE-56">
          <mxGeometry relative="1" as="geometry" />
        </mxCell>
        <mxCell id="0l4ULhUtCflf1OsS8YDE-52" style="edgeStyle=orthogonalEdgeStyle;rounded=0;orthogonalLoop=1;jettySize=auto;html=1;exitX=1;exitY=0.5;exitDx=0;exitDy=0;" edge="1" parent="1" source="0l4ULhUtCflf1OsS8YDE-53" target="0l4ULhUtCflf1OsS8YDE-58">
          <mxGeometry relative="1" as="geometry">
            <Array as="points">
              <mxPoint x="43" y="1305" />
            </Array>
          </mxGeometry>
        </mxCell>
        <mxCell id="0l4ULhUtCflf1OsS8YDE-53" value="&lt;font style=&quot;font-size: 10px;&quot;&gt;Врач свободен&lt;br&gt;в эту дату?&lt;/font&gt;" style="rhombus;whiteSpace=wrap;html=1;" vertex="1" parent="1">
          <mxGeometry x="-115" y="1250" width="120" height="110" as="geometry" />
        </mxCell>
        <mxCell id="0l4ULhUtCflf1OsS8YDE-55" style="edgeStyle=orthogonalEdgeStyle;rounded=0;orthogonalLoop=1;jettySize=auto;html=1;entryX=1;entryY=0.5;entryDx=0;entryDy=0;" edge="1" parent="1" source="0l4ULhUtCflf1OsS8YDE-56" target="0l4ULhUtCflf1OsS8YDE-62">
          <mxGeometry relative="1" as="geometry" />
        </mxCell>
        <mxCell id="0l4ULhUtCflf1OsS8YDE-56" value="Уведомление о том, что врач свободен" style="rounded=1;whiteSpace=wrap;html=1;" vertex="1" parent="1">
          <mxGeometry x="-215" y="1350" width="110" height="50" as="geometry" />
        </mxCell>
        <mxCell id="0l4ULhUtCflf1OsS8YDE-57" style="edgeStyle=orthogonalEdgeStyle;rounded=0;orthogonalLoop=1;jettySize=auto;html=1;" edge="1" parent="1" source="0l4ULhUtCflf1OsS8YDE-58" target="0l4ULhUtCflf1OsS8YDE-65">
          <mxGeometry relative="1" as="geometry" />
        </mxCell>
        <mxCell id="0l4ULhUtCflf1OsS8YDE-58" value="Уведомление о том, что врач занят в эту дату" style="rounded=1;whiteSpace=wrap;html=1;" vertex="1" parent="1">
          <mxGeometry x="-12.5" y="1350" width="110" height="50" as="geometry" />
        </mxCell>
        <mxCell id="0l4ULhUtCflf1OsS8YDE-59" value="Да" style="text;html=1;strokeColor=none;fillColor=none;align=center;verticalAlign=middle;whiteSpace=wrap;rounded=0;" vertex="1" parent="1">
          <mxGeometry x="-165" y="1270" width="60" height="30" as="geometry" />
        </mxCell>
        <mxCell id="0l4ULhUtCflf1OsS8YDE-60" value="Нет" style="text;html=1;strokeColor=none;fillColor=none;align=center;verticalAlign=middle;whiteSpace=wrap;rounded=0;" vertex="1" parent="1">
          <mxGeometry x="-10" y="1280" width="60" height="30" as="geometry" />
        </mxCell>
        <mxCell id="0l4ULhUtCflf1OsS8YDE-61" style="edgeStyle=orthogonalEdgeStyle;rounded=0;orthogonalLoop=1;jettySize=auto;html=1;entryX=0;entryY=0.5;entryDx=0;entryDy=0;exitX=0.5;exitY=1;exitDx=0;exitDy=0;" edge="1" parent="1" source="0l4ULhUtCflf1OsS8YDE-89" target="0l4ULhUtCflf1OsS8YDE-92">
          <mxGeometry relative="1" as="geometry">
            <Array as="points">
              <mxPoint x="-335" y="1585" />
            </Array>
          </mxGeometry>
        </mxCell>
        <mxCell id="0l4ULhUtCflf1OsS8YDE-62" value="Данные о записи" style="rounded=1;whiteSpace=wrap;html=1;" vertex="1" parent="1">
          <mxGeometry x="-390" y="1350" width="110" height="50" as="geometry" />
        </mxCell>
        <mxCell id="0l4ULhUtCflf1OsS8YDE-63" value="" style="ellipse;whiteSpace=wrap;html=1;aspect=fixed;" vertex="1" parent="1">
          <mxGeometry x="-110" y="1650" width="20" height="20" as="geometry" />
        </mxCell>
        <mxCell id="0l4ULhUtCflf1OsS8YDE-64" style="edgeStyle=orthogonalEdgeStyle;rounded=0;orthogonalLoop=1;jettySize=auto;html=1;entryX=0.5;entryY=0;entryDx=0;entryDy=0;exitX=1;exitY=0.5;exitDx=0;exitDy=0;" edge="1" parent="1" source="0l4ULhUtCflf1OsS8YDE-65" target="0l4ULhUtCflf1OsS8YDE-53">
          <mxGeometry relative="1" as="geometry">
            <Array as="points">
              <mxPoint x="130" y="1485" />
              <mxPoint x="130" y="1230" />
              <mxPoint x="-55" y="1230" />
            </Array>
          </mxGeometry>
        </mxCell>
        <mxCell id="0l4ULhUtCflf1OsS8YDE-65" value="Выбрать&lt;br&gt;другую дату?" style="rhombus;whiteSpace=wrap;html=1;" vertex="1" parent="1">
          <mxGeometry x="-17.5" y="1440" width="120" height="90" as="geometry" />
        </mxCell>
        <mxCell id="0l4ULhUtCflf1OsS8YDE-66" value="Выбрать другую дату" style="text;html=1;strokeColor=none;fillColor=none;align=center;verticalAlign=middle;whiteSpace=wrap;rounded=0;" vertex="1" parent="1">
          <mxGeometry x="102.5" y="1496" width="50" height="30" as="geometry" />
        </mxCell>
        <mxCell id="0l4ULhUtCflf1OsS8YDE-70" style="edgeStyle=orthogonalEdgeStyle;rounded=0;orthogonalLoop=1;jettySize=auto;html=1;entryX=0;entryY=0.5;entryDx=0;entryDy=0;exitX=0;exitY=0.5;exitDx=0;exitDy=0;" edge="1" parent="1" source="0l4ULhUtCflf1OsS8YDE-65" target="0l4ULhUtCflf1OsS8YDE-46">
          <mxGeometry relative="1" as="geometry">
            <Array as="points">
              <mxPoint x="-90" y="1485" />
              <mxPoint x="-90" y="1510" />
              <mxPoint x="-420" y="1510" />
              <mxPoint x="-420" y="1175" />
            </Array>
            <mxPoint x="-34.389000000000124" y="1502.1600000000003" as="targetPoint" />
          </mxGeometry>
        </mxCell>
        <mxCell id="0l4ULhUtCflf1OsS8YDE-73" value="Выбрать другого врача" style="text;html=1;strokeColor=none;fillColor=none;align=center;verticalAlign=middle;whiteSpace=wrap;rounded=0;" vertex="1" parent="1">
          <mxGeometry x="-95.5" y="1450" width="85" height="30" as="geometry" />
        </mxCell>
        <mxCell id="0l4ULhUtCflf1OsS8YDE-82" value="&lt;font style=&quot;font-size: 12px;&quot;&gt;Диаграмма 3. Запись к врачу&lt;/font&gt;" style="text;html=1;align=center;verticalAlign=middle;whiteSpace=wrap;rounded=0;" vertex="1" parent="1">
          <mxGeometry x="-590" y="1070" width="100" height="30" as="geometry" />
        </mxCell>
        <mxCell id="Ak_vRCHNeL2dAgaO65nm-84" value="" style="rounded=0;whiteSpace=wrap;html=1;" vertex="1" parent="1">
          <mxGeometry x="1500" y="30" width="240" height="650" as="geometry" />
        </mxCell>
        <mxCell id="Ak_vRCHNeL2dAgaO65nm-85" value="Врач" style="text;html=1;align=center;verticalAlign=middle;whiteSpace=wrap;rounded=0;" vertex="1" parent="1">
          <mxGeometry x="1595" y="30" width="60" height="30" as="geometry" />
        </mxCell>
        <mxCell id="Ak_vRCHNeL2dAgaO65nm-86" value="" style="ellipse;whiteSpace=wrap;html=1;aspect=fixed;direction=south;" vertex="1" parent="1">
          <mxGeometry x="1610" y="70" width="20" height="20" as="geometry" />
        </mxCell>
        <mxCell id="Ak_vRCHNeL2dAgaO65nm-97" style="edgeStyle=orthogonalEdgeStyle;rounded=0;orthogonalLoop=1;jettySize=auto;html=1;entryX=0.5;entryY=0;entryDx=0;entryDy=0;" edge="1" parent="1" source="Ak_vRCHNeL2dAgaO65nm-87" target="Ak_vRCHNeL2dAgaO65nm-89">
          <mxGeometry relative="1" as="geometry" />
        </mxCell>
        <mxCell id="Ak_vRCHNeL2dAgaO65nm-87" value="Текст сообщения" style="rounded=1;whiteSpace=wrap;html=1;" vertex="1" parent="1">
          <mxGeometry x="1570" y="120" width="110" height="50" as="geometry" />
        </mxCell>
        <mxCell id="Ak_vRCHNeL2dAgaO65nm-99" style="edgeStyle=orthogonalEdgeStyle;rounded=0;orthogonalLoop=1;jettySize=auto;html=1;" edge="1" parent="1" source="Ak_vRCHNeL2dAgaO65nm-88" target="Ak_vRCHNeL2dAgaO65nm-50">
          <mxGeometry relative="1" as="geometry" />
        </mxCell>
        <mxCell id="Ak_vRCHNeL2dAgaO65nm-88" value="Выбор пользователя" style="rounded=1;whiteSpace=wrap;html=1;" vertex="1" parent="1">
          <mxGeometry x="902" y="200" width="110" height="50" as="geometry" />
        </mxCell>
        <mxCell id="Ak_vRCHNeL2dAgaO65nm-100" style="edgeStyle=orthogonalEdgeStyle;rounded=0;orthogonalLoop=1;jettySize=auto;html=1;" edge="1" parent="1" source="Ak_vRCHNeL2dAgaO65nm-89" target="Ak_vRCHNeL2dAgaO65nm-50">
          <mxGeometry relative="1" as="geometry" />
        </mxCell>
        <mxCell id="Ak_vRCHNeL2dAgaO65nm-89" value="Выбор пользователя" style="rounded=1;whiteSpace=wrap;html=1;" vertex="1" parent="1">
          <mxGeometry x="1570" y="200" width="110" height="50" as="geometry" />
        </mxCell>
        <mxCell id="0l4ULhUtCflf1OsS8YDE-83" value="Выбор даты" style="rounded=1;whiteSpace=wrap;html=1;" vertex="1" parent="1">
          <mxGeometry x="-400" y="1230" width="110" height="50" as="geometry" />
        </mxCell>
        <mxCell id="Ak_vRCHNeL2dAgaO65nm-93" style="edgeStyle=orthogonalEdgeStyle;rounded=0;orthogonalLoop=1;jettySize=auto;html=1;entryX=0.53;entryY=0.047;entryDx=0;entryDy=0;entryPerimeter=0;" edge="1" parent="1" source="Ak_vRCHNeL2dAgaO65nm-45" target="Ak_vRCHNeL2dAgaO65nm-43">
          <mxGeometry relative="1" as="geometry" />
        </mxCell>
        <mxCell id="Ak_vRCHNeL2dAgaO65nm-98" style="edgeStyle=orthogonalEdgeStyle;rounded=0;orthogonalLoop=1;jettySize=auto;html=1;entryX=0.455;entryY=0.046;entryDx=0;entryDy=0;entryPerimeter=0;" edge="1" parent="1" source="Ak_vRCHNeL2dAgaO65nm-86" target="Ak_vRCHNeL2dAgaO65nm-87">
          <mxGeometry relative="1" as="geometry" />
        </mxCell>
        <mxCell id="0l4ULhUtCflf1OsS8YDE-84" style="edgeStyle=orthogonalEdgeStyle;rounded=0;orthogonalLoop=1;jettySize=auto;html=1;entryX=0.5;entryY=0;entryDx=0;entryDy=0;exitX=0.5;exitY=1;exitDx=0;exitDy=0;" edge="1" parent="1" source="0l4ULhUtCflf1OsS8YDE-46" target="0l4ULhUtCflf1OsS8YDE-83">
          <mxGeometry relative="1" as="geometry">
            <mxPoint x="-100" y="1195" as="sourcePoint" />
            <mxPoint x="-300" y="1195" as="targetPoint" />
          </mxGeometry>
        </mxCell>
        <mxCell id="Ak_vRCHNeL2dAgaO65nm-105" style="edgeStyle=orthogonalEdgeStyle;rounded=0;orthogonalLoop=1;jettySize=auto;html=1;entryX=0.5;entryY=0;entryDx=0;entryDy=0;" edge="1" parent="1" source="Ak_vRCHNeL2dAgaO65nm-101" target="Ak_vRCHNeL2dAgaO65nm-102">
          <mxGeometry relative="1" as="geometry" />
        </mxCell>
        <mxCell id="Ak_vRCHNeL2dAgaO65nm-101" value="Сохранение сообщения в БД" style="rounded=1;whiteSpace=wrap;html=1;" vertex="1" parent="1">
          <mxGeometry x="1232.5" y="410" width="110" height="50" as="geometry" />
        </mxCell>
        <mxCell id="Ak_vRCHNeL2dAgaO65nm-106" style="edgeStyle=orthogonalEdgeStyle;rounded=0;orthogonalLoop=1;jettySize=auto;html=1;entryX=0.5;entryY=0;entryDx=0;entryDy=0;" edge="1" parent="1" source="Ak_vRCHNeL2dAgaO65nm-102" target="Ak_vRCHNeL2dAgaO65nm-60">
          <mxGeometry relative="1" as="geometry" />
        </mxCell>
        <mxCell id="Ak_vRCHNeL2dAgaO65nm-102" value="Отправка сообщения" style="rounded=1;whiteSpace=wrap;html=1;" vertex="1" parent="1">
          <mxGeometry x="1232.5" y="500" width="110" height="50" as="geometry" />
        </mxCell>
        <mxCell id="Ak_vRCHNeL2dAgaO65nm-107" style="edgeStyle=orthogonalEdgeStyle;rounded=0;orthogonalLoop=1;jettySize=auto;html=1;entryX=0.5;entryY=1;entryDx=0;entryDy=0;" edge="1" parent="1" source="Ak_vRCHNeL2dAgaO65nm-50" target="Ak_vRCHNeL2dAgaO65nm-89">
          <mxGeometry relative="1" as="geometry" />
        </mxCell>
        <mxCell id="Ak_vRCHNeL2dAgaO65nm-109" value="Да" style="text;html=1;align=center;verticalAlign=middle;whiteSpace=wrap;rounded=0;" vertex="1" parent="1">
          <mxGeometry x="1190" y="310" width="60" height="30" as="geometry" />
        </mxCell>
        <mxCell id="Ak_vRCHNeL2dAgaO65nm-110" value="Нет" style="text;html=1;align=center;verticalAlign=middle;whiteSpace=wrap;rounded=0;" vertex="1" parent="1">
          <mxGeometry x="1320" y="310" width="60" height="30" as="geometry" />
        </mxCell>
        <mxCell id="Ak_vRCHNeL2dAgaO65nm-111" value="" style="rounded=1;whiteSpace=wrap;html=1;fillColor=none;arcSize=6;" vertex="1" parent="1">
          <mxGeometry x="780" y="880" width="1140" height="750" as="geometry" />
        </mxCell>
        <mxCell id="Ak_vRCHNeL2dAgaO65nm-112" value="&lt;p style=&quot;margin:0px;margin-top:4px;text-align:center;text-decoration:underline;&quot;&gt;&lt;b&gt;Врач&lt;/b&gt;&lt;/p&gt;" style="verticalAlign=top;align=left;overflow=fill;fontSize=12;fontFamily=Helvetica;html=1;whiteSpace=wrap;" vertex="1" parent="1">
          <mxGeometry x="930" y="910" width="240" height="650" as="geometry" />
        </mxCell>
        <mxCell id="Ak_vRCHNeL2dAgaO65nm-113" value="&lt;p style=&quot;margin:0px;margin-top:4px;text-align:center;text-decoration:underline;&quot;&gt;&lt;b&gt;Система&lt;/b&gt;&lt;/p&gt;" style="verticalAlign=top;align=left;overflow=fill;fontSize=12;fontFamily=Helvetica;html=1;whiteSpace=wrap;" vertex="1" parent="1">
          <mxGeometry x="1170" y="910" width="420" height="650" as="geometry" />
        </mxCell>
        <mxCell id="Ak_vRCHNeL2dAgaO65nm-114" style="edgeStyle=orthogonalEdgeStyle;rounded=0;orthogonalLoop=1;jettySize=auto;html=1;entryX=0.5;entryY=0;entryDx=0;entryDy=0;" edge="1" parent="1" source="Ak_vRCHNeL2dAgaO65nm-115" target="Ak_vRCHNeL2dAgaO65nm-122">
          <mxGeometry relative="1" as="geometry">
            <Array as="points">
              <mxPoint x="1035" y="1070" />
              <mxPoint x="1345" y="1070" />
            </Array>
          </mxGeometry>
        </mxCell>
        <mxCell id="Ak_vRCHNeL2dAgaO65nm-115" value="Загрузка изображения" style="rounded=1;whiteSpace=wrap;html=1;" vertex="1" parent="1">
          <mxGeometry x="980" y="1000" width="110" height="50" as="geometry" />
        </mxCell>
        <mxCell id="Ak_vRCHNeL2dAgaO65nm-116" style="edgeStyle=orthogonalEdgeStyle;rounded=0;orthogonalLoop=1;jettySize=auto;html=1;entryX=0.5;entryY=0;entryDx=0;entryDy=0;" edge="1" parent="1" source="Ak_vRCHNeL2dAgaO65nm-117" target="Ak_vRCHNeL2dAgaO65nm-119">
          <mxGeometry relative="1" as="geometry" />
        </mxCell>
        <mxCell id="Ak_vRCHNeL2dAgaO65nm-117" value="" style="ellipse;whiteSpace=wrap;html=1;aspect=fixed;" vertex="1" parent="1">
          <mxGeometry x="1335" y="940" width="20" height="20" as="geometry" />
        </mxCell>
        <mxCell id="Ak_vRCHNeL2dAgaO65nm-118" style="edgeStyle=orthogonalEdgeStyle;rounded=0;orthogonalLoop=1;jettySize=auto;html=1;entryX=1;entryY=0.5;entryDx=0;entryDy=0;" edge="1" parent="1" source="Ak_vRCHNeL2dAgaO65nm-119" target="Ak_vRCHNeL2dAgaO65nm-115">
          <mxGeometry relative="1" as="geometry" />
        </mxCell>
        <mxCell id="Ak_vRCHNeL2dAgaO65nm-119" value="Форма загрузки ФЛГ снимков" style="rounded=1;whiteSpace=wrap;html=1;" vertex="1" parent="1">
          <mxGeometry x="1290" y="1000" width="110" height="50" as="geometry" />
        </mxCell>
        <mxCell id="Ak_vRCHNeL2dAgaO65nm-120" style="edgeStyle=orthogonalEdgeStyle;rounded=0;orthogonalLoop=1;jettySize=auto;html=1;entryX=0.5;entryY=0;entryDx=0;entryDy=0;" edge="1" parent="1" source="Ak_vRCHNeL2dAgaO65nm-122" target="Ak_vRCHNeL2dAgaO65nm-125">
          <mxGeometry relative="1" as="geometry" />
        </mxCell>
        <mxCell id="Ak_vRCHNeL2dAgaO65nm-121" style="edgeStyle=orthogonalEdgeStyle;rounded=0;orthogonalLoop=1;jettySize=auto;html=1;" edge="1" parent="1" source="Ak_vRCHNeL2dAgaO65nm-122" target="Ak_vRCHNeL2dAgaO65nm-127">
          <mxGeometry relative="1" as="geometry">
            <Array as="points">
              <mxPoint x="1443" y="1125" />
            </Array>
          </mxGeometry>
        </mxCell>
        <mxCell id="Ak_vRCHNeL2dAgaO65nm-122" value="Изображение загружено" style="rhombus;whiteSpace=wrap;html=1;" vertex="1" parent="1">
          <mxGeometry x="1302.5" y="1090" width="85" height="70" as="geometry" />
        </mxCell>
        <mxCell id="Ak_vRCHNeL2dAgaO65nm-123" value="&lt;p style=&quot;margin:0px;margin-top:4px;text-align:center;text-decoration:underline;&quot;&gt;&lt;b&gt;Микросервис с нейронной сетью&lt;/b&gt;&lt;/p&gt;" style="verticalAlign=top;align=left;overflow=fill;fontSize=12;fontFamily=Helvetica;html=1;whiteSpace=wrap;" vertex="1" parent="1">
          <mxGeometry x="1590" y="910" width="280" height="650" as="geometry" />
        </mxCell>
        <mxCell id="Ak_vRCHNeL2dAgaO65nm-152" style="edgeStyle=orthogonalEdgeStyle;rounded=0;orthogonalLoop=1;jettySize=auto;html=1;entryX=0.5;entryY=0;entryDx=0;entryDy=0;" edge="1" parent="1" source="Ak_vRCHNeL2dAgaO65nm-125" target="Ak_vRCHNeL2dAgaO65nm-115">
          <mxGeometry relative="1" as="geometry">
            <Array as="points">
              <mxPoint x="970" y="1215" />
              <mxPoint x="970" y="980" />
              <mxPoint x="1035" y="980" />
            </Array>
          </mxGeometry>
        </mxCell>
        <mxCell id="Ak_vRCHNeL2dAgaO65nm-125" value="Уведомление: изображение не загружено" style="rounded=1;whiteSpace=wrap;html=1;" vertex="1" parent="1">
          <mxGeometry x="1180" y="1190" width="110" height="50" as="geometry" />
        </mxCell>
        <mxCell id="Ak_vRCHNeL2dAgaO65nm-156" style="edgeStyle=orthogonalEdgeStyle;rounded=0;orthogonalLoop=1;jettySize=auto;html=1;entryX=0.5;entryY=0;entryDx=0;entryDy=0;" edge="1" parent="1" source="Ak_vRCHNeL2dAgaO65nm-127" target="Ak_vRCHNeL2dAgaO65nm-153">
          <mxGeometry relative="1" as="geometry" />
        </mxCell>
        <mxCell id="Ak_vRCHNeL2dAgaO65nm-127" value="Перевод изображение в битовую форму" style="rounded=1;whiteSpace=wrap;html=1;" vertex="1" parent="1">
          <mxGeometry x="1387.5" y="1190" width="110" height="50" as="geometry" />
        </mxCell>
        <mxCell id="Ak_vRCHNeL2dAgaO65nm-128" value="Нет" style="text;html=1;strokeColor=none;fillColor=none;align=center;verticalAlign=middle;whiteSpace=wrap;rounded=0;" vertex="1" parent="1">
          <mxGeometry x="1242.5" y="1100" width="60" height="30" as="geometry" />
        </mxCell>
        <mxCell id="Ak_vRCHNeL2dAgaO65nm-129" value="Да" style="text;html=1;strokeColor=none;fillColor=none;align=center;verticalAlign=middle;whiteSpace=wrap;rounded=0;" vertex="1" parent="1">
          <mxGeometry x="1383" y="1100" width="60" height="30" as="geometry" />
        </mxCell>
        <mxCell id="Ak_vRCHNeL2dAgaO65nm-132" value="" style="ellipse;whiteSpace=wrap;html=1;aspect=fixed;" vertex="1" parent="1">
          <mxGeometry x="1335" y="1530" width="20" height="20" as="geometry" />
        </mxCell>
        <mxCell id="Ak_vRCHNeL2dAgaO65nm-151" value="Диаграмма 4&lt;br&gt;Анализ ФЛГ снимков" style="text;html=1;align=center;verticalAlign=middle;whiteSpace=wrap;rounded=0;" vertex="1" parent="1">
          <mxGeometry x="810" y="910" width="90" height="30" as="geometry" />
        </mxCell>
        <mxCell id="Ak_vRCHNeL2dAgaO65nm-157" style="edgeStyle=orthogonalEdgeStyle;rounded=0;orthogonalLoop=1;jettySize=auto;html=1;entryX=0.5;entryY=0;entryDx=0;entryDy=0;" edge="1" parent="1" source="Ak_vRCHNeL2dAgaO65nm-153" target="Ak_vRCHNeL2dAgaO65nm-154">
          <mxGeometry relative="1" as="geometry">
            <Array as="points">
              <mxPoint x="1630" y="1295" />
              <mxPoint x="1630" y="1100" />
              <mxPoint x="1730" y="1100" />
            </Array>
          </mxGeometry>
        </mxCell>
        <mxCell id="Ak_vRCHNeL2dAgaO65nm-153" value="Отправка на микросервис" style="rounded=1;whiteSpace=wrap;html=1;" vertex="1" parent="1">
          <mxGeometry x="1387.5" y="1270" width="110" height="50" as="geometry" />
        </mxCell>
        <mxCell id="Ak_vRCHNeL2dAgaO65nm-158" style="edgeStyle=orthogonalEdgeStyle;rounded=0;orthogonalLoop=1;jettySize=auto;html=1;entryX=0.5;entryY=0;entryDx=0;entryDy=0;" edge="1" parent="1" source="Ak_vRCHNeL2dAgaO65nm-154" target="Ak_vRCHNeL2dAgaO65nm-155">
          <mxGeometry relative="1" as="geometry" />
        </mxCell>
        <mxCell id="Ak_vRCHNeL2dAgaO65nm-154" value="Классификация изображения" style="rounded=1;whiteSpace=wrap;html=1;" vertex="1" parent="1">
          <mxGeometry x="1675" y="1120" width="110" height="50" as="geometry" />
        </mxCell>
        <mxCell id="Ak_vRCHNeL2dAgaO65nm-160" style="edgeStyle=orthogonalEdgeStyle;rounded=0;orthogonalLoop=1;jettySize=auto;html=1;entryX=1;entryY=0.5;entryDx=0;entryDy=0;" edge="1" parent="1" source="Ak_vRCHNeL2dAgaO65nm-155" target="Ak_vRCHNeL2dAgaO65nm-159">
          <mxGeometry relative="1" as="geometry">
            <Array as="points">
              <mxPoint x="1740" y="1385" />
            </Array>
          </mxGeometry>
        </mxCell>
        <mxCell id="Ak_vRCHNeL2dAgaO65nm-155" value="Построение карт активации" style="rounded=1;whiteSpace=wrap;html=1;" vertex="1" parent="1">
          <mxGeometry x="1675" y="1200" width="110" height="50" as="geometry" />
        </mxCell>
        <mxCell id="Ak_vRCHNeL2dAgaO65nm-162" style="edgeStyle=orthogonalEdgeStyle;rounded=0;orthogonalLoop=1;jettySize=auto;html=1;entryX=1;entryY=0.5;entryDx=0;entryDy=0;" edge="1" parent="1" source="Ak_vRCHNeL2dAgaO65nm-159" target="Ak_vRCHNeL2dAgaO65nm-161">
          <mxGeometry relative="1" as="geometry" />
        </mxCell>
        <mxCell id="Ak_vRCHNeL2dAgaO65nm-159" value="Сохранение в БД" style="rounded=1;whiteSpace=wrap;html=1;" vertex="1" parent="1">
          <mxGeometry x="1390" y="1360" width="110" height="50" as="geometry" />
        </mxCell>
        <mxCell id="Ak_vRCHNeL2dAgaO65nm-161" value="Уведомление врачу: анализ завершен" style="rounded=1;whiteSpace=wrap;html=1;" vertex="1" parent="1">
          <mxGeometry x="1217.5" y="1360" width="110" height="50" as="geometry" />
        </mxCell>
        <mxCell id="Ak_vRCHNeL2dAgaO65nm-163" style="edgeStyle=orthogonalEdgeStyle;rounded=0;orthogonalLoop=1;jettySize=auto;html=1;entryX=0;entryY=0.5;entryDx=0;entryDy=0;" edge="1" parent="1" source="Ak_vRCHNeL2dAgaO65nm-161" target="Ak_vRCHNeL2dAgaO65nm-132">
          <mxGeometry relative="1" as="geometry">
            <Array as="points">
              <mxPoint x="1190" y="1385" />
              <mxPoint x="1190" y="1540" />
            </Array>
          </mxGeometry>
        </mxCell>
        <mxCell id="Ak_vRCHNeL2dAgaO65nm-166" value="&lt;p style=&quot;margin:0px;margin-top:4px;text-align:center;text-decoration:underline;&quot;&gt;&lt;b&gt;Система&lt;/b&gt;&lt;/p&gt;" style="verticalAlign=top;align=left;overflow=fill;fontSize=12;fontFamily=Helvetica;html=1;whiteSpace=wrap;" vertex="1" parent="1">
          <mxGeometry x="1200" y="1730" width="420" height="650" as="geometry" />
        </mxCell>
        <mxCell id="Ak_vRCHNeL2dAgaO65nm-167" style="edgeStyle=orthogonalEdgeStyle;rounded=0;orthogonalLoop=1;jettySize=auto;html=1;entryX=0.5;entryY=0;entryDx=0;entryDy=0;" edge="1" parent="1" source="Ak_vRCHNeL2dAgaO65nm-168" target="Ak_vRCHNeL2dAgaO65nm-175">
          <mxGeometry relative="1" as="geometry">
            <Array as="points">
              <mxPoint x="1065" y="1890" />
              <mxPoint x="1375" y="1890" />
            </Array>
          </mxGeometry>
        </mxCell>
        <mxCell id="Ak_vRCHNeL2dAgaO65nm-168" value="Загрузка изображения" style="rounded=1;whiteSpace=wrap;html=1;" vertex="1" parent="1">
          <mxGeometry x="1010" y="1820" width="110" height="50" as="geometry" />
        </mxCell>
        <mxCell id="Ak_vRCHNeL2dAgaO65nm-169" style="edgeStyle=orthogonalEdgeStyle;rounded=0;orthogonalLoop=1;jettySize=auto;html=1;entryX=0.5;entryY=0;entryDx=0;entryDy=0;" edge="1" parent="1" source="Ak_vRCHNeL2dAgaO65nm-170" target="Ak_vRCHNeL2dAgaO65nm-172">
          <mxGeometry relative="1" as="geometry" />
        </mxCell>
        <mxCell id="Ak_vRCHNeL2dAgaO65nm-170" value="" style="ellipse;whiteSpace=wrap;html=1;aspect=fixed;" vertex="1" parent="1">
          <mxGeometry x="1365" y="1760" width="20" height="20" as="geometry" />
        </mxCell>
        <mxCell id="Ak_vRCHNeL2dAgaO65nm-171" style="edgeStyle=orthogonalEdgeStyle;rounded=0;orthogonalLoop=1;jettySize=auto;html=1;entryX=1;entryY=0.5;entryDx=0;entryDy=0;" edge="1" parent="1" source="Ak_vRCHNeL2dAgaO65nm-172" target="Ak_vRCHNeL2dAgaO65nm-168">
          <mxGeometry relative="1" as="geometry" />
        </mxCell>
        <mxCell id="Ak_vRCHNeL2dAgaO65nm-172" value="Форма загрузки МРТ снимков" style="rounded=1;whiteSpace=wrap;html=1;" vertex="1" parent="1">
          <mxGeometry x="1320" y="1820" width="110" height="50" as="geometry" />
        </mxCell>
        <mxCell id="Ak_vRCHNeL2dAgaO65nm-173" style="edgeStyle=orthogonalEdgeStyle;rounded=0;orthogonalLoop=1;jettySize=auto;html=1;entryX=0.5;entryY=0;entryDx=0;entryDy=0;" edge="1" parent="1" source="Ak_vRCHNeL2dAgaO65nm-175" target="Ak_vRCHNeL2dAgaO65nm-178">
          <mxGeometry relative="1" as="geometry" />
        </mxCell>
        <mxCell id="Ak_vRCHNeL2dAgaO65nm-174" style="edgeStyle=orthogonalEdgeStyle;rounded=0;orthogonalLoop=1;jettySize=auto;html=1;" edge="1" parent="1" source="Ak_vRCHNeL2dAgaO65nm-175" target="Ak_vRCHNeL2dAgaO65nm-180">
          <mxGeometry relative="1" as="geometry">
            <Array as="points">
              <mxPoint x="1473" y="1945" />
            </Array>
          </mxGeometry>
        </mxCell>
        <mxCell id="Ak_vRCHNeL2dAgaO65nm-175" value="Изображение загружено" style="rhombus;whiteSpace=wrap;html=1;" vertex="1" parent="1">
          <mxGeometry x="1332.5" y="1910" width="85" height="70" as="geometry" />
        </mxCell>
        <mxCell id="Ak_vRCHNeL2dAgaO65nm-176" value="&lt;p style=&quot;margin:0px;margin-top:4px;text-align:center;text-decoration:underline;&quot;&gt;&lt;b&gt;Микросервис с нейронной сетью&lt;/b&gt;&lt;/p&gt;" style="verticalAlign=top;align=left;overflow=fill;fontSize=12;fontFamily=Helvetica;html=1;whiteSpace=wrap;" vertex="1" parent="1">
          <mxGeometry x="1620" y="1730" width="280" height="650" as="geometry" />
        </mxCell>
        <mxCell id="Ak_vRCHNeL2dAgaO65nm-177" style="edgeStyle=orthogonalEdgeStyle;rounded=0;orthogonalLoop=1;jettySize=auto;html=1;entryX=0.5;entryY=0;entryDx=0;entryDy=0;" edge="1" parent="1" source="Ak_vRCHNeL2dAgaO65nm-178" target="Ak_vRCHNeL2dAgaO65nm-168">
          <mxGeometry relative="1" as="geometry">
            <Array as="points">
              <mxPoint x="1000" y="2035" />
              <mxPoint x="1000" y="1800" />
              <mxPoint x="1065" y="1800" />
            </Array>
          </mxGeometry>
        </mxCell>
        <mxCell id="Ak_vRCHNeL2dAgaO65nm-178" value="Уведомление: изображение не загружено" style="rounded=1;whiteSpace=wrap;html=1;" vertex="1" parent="1">
          <mxGeometry x="1210" y="2010" width="110" height="50" as="geometry" />
        </mxCell>
        <mxCell id="Ak_vRCHNeL2dAgaO65nm-179" style="edgeStyle=orthogonalEdgeStyle;rounded=0;orthogonalLoop=1;jettySize=auto;html=1;entryX=0.5;entryY=0;entryDx=0;entryDy=0;" edge="1" parent="1" source="Ak_vRCHNeL2dAgaO65nm-180" target="Ak_vRCHNeL2dAgaO65nm-186">
          <mxGeometry relative="1" as="geometry" />
        </mxCell>
        <mxCell id="Ak_vRCHNeL2dAgaO65nm-180" value="Перевод изображение в битовую форму" style="rounded=1;whiteSpace=wrap;html=1;" vertex="1" parent="1">
          <mxGeometry x="1417.5" y="2010" width="110" height="50" as="geometry" />
        </mxCell>
        <mxCell id="Ak_vRCHNeL2dAgaO65nm-181" value="Нет" style="text;html=1;strokeColor=none;fillColor=none;align=center;verticalAlign=middle;whiteSpace=wrap;rounded=0;" vertex="1" parent="1">
          <mxGeometry x="1272.5" y="1920" width="60" height="30" as="geometry" />
        </mxCell>
        <mxCell id="Ak_vRCHNeL2dAgaO65nm-182" value="Да" style="text;html=1;strokeColor=none;fillColor=none;align=center;verticalAlign=middle;whiteSpace=wrap;rounded=0;" vertex="1" parent="1">
          <mxGeometry x="1413" y="1920" width="60" height="30" as="geometry" />
        </mxCell>
        <mxCell id="Ak_vRCHNeL2dAgaO65nm-183" value="" style="ellipse;whiteSpace=wrap;html=1;aspect=fixed;" vertex="1" parent="1">
          <mxGeometry x="1365" y="2350" width="20" height="20" as="geometry" />
        </mxCell>
        <mxCell id="Ak_vRCHNeL2dAgaO65nm-184" value="Диаграмма 4&lt;div&gt;Анализ МРТ снимкос&lt;/div&gt;" style="text;html=1;align=center;verticalAlign=middle;whiteSpace=wrap;rounded=0;" vertex="1" parent="1">
          <mxGeometry x="843" y="1730" width="90" height="30" as="geometry" />
        </mxCell>
        <mxCell id="Ak_vRCHNeL2dAgaO65nm-185" style="edgeStyle=orthogonalEdgeStyle;rounded=0;orthogonalLoop=1;jettySize=auto;html=1;entryX=0.5;entryY=0;entryDx=0;entryDy=0;" edge="1" parent="1" source="Ak_vRCHNeL2dAgaO65nm-186" target="Ak_vRCHNeL2dAgaO65nm-188">
          <mxGeometry relative="1" as="geometry">
            <Array as="points">
              <mxPoint x="1660" y="2115" />
              <mxPoint x="1660" y="1920" />
              <mxPoint x="1760" y="1920" />
            </Array>
          </mxGeometry>
        </mxCell>
        <mxCell id="Ak_vRCHNeL2dAgaO65nm-186" value="Отправка на микросервис" style="rounded=1;whiteSpace=wrap;html=1;" vertex="1" parent="1">
          <mxGeometry x="1417.5" y="2090" width="110" height="50" as="geometry" />
        </mxCell>
        <mxCell id="Ak_vRCHNeL2dAgaO65nm-187" style="edgeStyle=orthogonalEdgeStyle;rounded=0;orthogonalLoop=1;jettySize=auto;html=1;entryX=0.5;entryY=0;entryDx=0;entryDy=0;" edge="1" parent="1" source="Ak_vRCHNeL2dAgaO65nm-188" target="Ak_vRCHNeL2dAgaO65nm-190">
          <mxGeometry relative="1" as="geometry" />
        </mxCell>
        <mxCell id="Ak_vRCHNeL2dAgaO65nm-188" value="Предобработка изображения&amp;nbsp;" style="rounded=1;whiteSpace=wrap;html=1;" vertex="1" parent="1">
          <mxGeometry x="1705" y="1940" width="110" height="50" as="geometry" />
        </mxCell>
        <mxCell id="Ak_vRCHNeL2dAgaO65nm-189" style="edgeStyle=orthogonalEdgeStyle;rounded=0;orthogonalLoop=1;jettySize=auto;html=1;entryX=1;entryY=0.5;entryDx=0;entryDy=0;" edge="1" parent="1" source="Ak_vRCHNeL2dAgaO65nm-190" target="Ak_vRCHNeL2dAgaO65nm-192">
          <mxGeometry relative="1" as="geometry">
            <Array as="points">
              <mxPoint x="1770" y="2205" />
            </Array>
          </mxGeometry>
        </mxCell>
        <mxCell id="Ak_vRCHNeL2dAgaO65nm-190" value="Сегментация" style="rounded=1;whiteSpace=wrap;html=1;" vertex="1" parent="1">
          <mxGeometry x="1705" y="2020" width="110" height="50" as="geometry" />
        </mxCell>
        <mxCell id="Ak_vRCHNeL2dAgaO65nm-191" style="edgeStyle=orthogonalEdgeStyle;rounded=0;orthogonalLoop=1;jettySize=auto;html=1;entryX=1;entryY=0.5;entryDx=0;entryDy=0;" edge="1" parent="1" source="Ak_vRCHNeL2dAgaO65nm-192" target="Ak_vRCHNeL2dAgaO65nm-193">
          <mxGeometry relative="1" as="geometry" />
        </mxCell>
        <mxCell id="Ak_vRCHNeL2dAgaO65nm-192" value="Сохранение в БД" style="rounded=1;whiteSpace=wrap;html=1;" vertex="1" parent="1">
          <mxGeometry x="1420" y="2180" width="110" height="50" as="geometry" />
        </mxCell>
        <mxCell id="Ak_vRCHNeL2dAgaO65nm-193" value="Уведомление врачу: анализ завершен" style="rounded=1;whiteSpace=wrap;html=1;" vertex="1" parent="1">
          <mxGeometry x="1247.5" y="2180" width="110" height="50" as="geometry" />
        </mxCell>
        <mxCell id="Ak_vRCHNeL2dAgaO65nm-194" style="edgeStyle=orthogonalEdgeStyle;rounded=0;orthogonalLoop=1;jettySize=auto;html=1;entryX=0;entryY=0.5;entryDx=0;entryDy=0;" edge="1" parent="1" source="Ak_vRCHNeL2dAgaO65nm-193" target="Ak_vRCHNeL2dAgaO65nm-183">
          <mxGeometry relative="1" as="geometry">
            <Array as="points">
              <mxPoint x="1220" y="2205" />
              <mxPoint x="1220" y="2360" />
            </Array>
          </mxGeometry>
        </mxCell>
        <mxCell id="0l4ULhUtCflf1OsS8YDE-89" value="Подтверждение записи" style="rounded=1;whiteSpace=wrap;html=1;" vertex="1" parent="1">
          <mxGeometry x="-390" y="1440" width="110" height="50" as="geometry" />
        </mxCell>
        <mxCell id="0l4ULhUtCflf1OsS8YDE-90" style="edgeStyle=orthogonalEdgeStyle;rounded=0;orthogonalLoop=1;jettySize=auto;html=1;entryX=0.5;entryY=0;entryDx=0;entryDy=0;exitX=0.5;exitY=1;exitDx=0;exitDy=0;" edge="1" parent="1" source="0l4ULhUtCflf1OsS8YDE-62" target="0l4ULhUtCflf1OsS8YDE-89">
          <mxGeometry relative="1" as="geometry">
            <mxPoint x="-210" y="1385" as="sourcePoint" />
            <mxPoint x="-280" y="1385" as="targetPoint" />
          </mxGeometry>
        </mxCell>
        <mxCell id="0l4ULhUtCflf1OsS8YDE-93" style="edgeStyle=orthogonalEdgeStyle;rounded=0;orthogonalLoop=1;jettySize=auto;html=1;entryX=0.5;entryY=0;entryDx=0;entryDy=0;" edge="1" parent="1" source="0l4ULhUtCflf1OsS8YDE-92" target="0l4ULhUtCflf1OsS8YDE-63">
          <mxGeometry relative="1" as="geometry" />
        </mxCell>
        <mxCell id="0l4ULhUtCflf1OsS8YDE-92" value="Уведомление об успешной записи" style="rounded=1;whiteSpace=wrap;html=1;" vertex="1" parent="1">
          <mxGeometry x="-155" y="1560" width="110" height="50" as="geometry" />
        </mxCell>
      </root>
    </mxGraphModel>
  </diagram>
</mxfile>
